<?xml version="1.0" encoding="UTF-8" standalone="no"?>
<!-- Created with Inkscape (http://www.inkscape.org/) -->

<svg
   width="100mm"
   height="100mm"
   viewBox="0 0 100 100"
   version="1.1"
   id="svg5"
   sodipodi:docname="iizna_23_1_1.svg"
   inkscape:version="1.1.1 (3bf5ae0d25, 2021-09-20)"
   xmlns:inkscape="http://www.inkscape.org/namespaces/inkscape"
   xmlns:sodipodi="http://sodipodi.sourceforge.net/DTD/sodipodi-0.dtd"
   xmlns="http://www.w3.org/2000/svg"
   xmlns:svg="http://www.w3.org/2000/svg">
  <sodipodi:namedview
     id="namedview7"
     pagecolor="#505050"
     bordercolor="#eeeeee"
     borderopacity="1"
     inkscape:pageshadow="0"
     inkscape:pageopacity="0"
     inkscape:pagecheckerboard="0"
     inkscape:document-units="mm"
     showgrid="false"
     inkscape:zoom="0.97764853"
     inkscape:cx="197.41246"
     inkscape:cy="15.854368"
     inkscape:window-width="1280"
     inkscape:window-height="961"
     inkscape:window-x="-8"
     inkscape:window-y="32"
     inkscape:window-maximized="1"
     inkscape:current-layer="layer1" />
  <defs
     id="defs2" />
  <g
     inkscape:label="Layer 1"
     inkscape:groupmode="layer"
     id="layer1">
    <rect
       style="fill:#ffffff;fill-opacity:1;stroke:none;stroke-width:9.18025;stroke-linecap:round;stroke-linejoin:round"
       id="rect10532"
       width="100"
       height="100"
       x="0"
       y="0"
       ry="0" />
    <path
       id="path984"
       style="fill:#ffffff;fill-opacity:1;stroke-width:0.988108;stroke-linecap:round;stroke-linejoin:round"
       d="M -30.830684,36.339562 A 25.000011,25.000011 0 0 0 -37.30117,60.487743 25.000011,25.000011 0 0 0 -13.153027,54.017247 25.000011,25.000011 0 0 0 -30.830684,36.339562 Z" />
    <circle
       style="fill:#ffffff;fill-opacity:1;stroke:none;stroke-width:2.64608;stroke-linecap:round;stroke-linejoin:round"
       id="path5281"
       cx="57.709003"
       cy="-15.902999"
       r="2.5" />
    <ellipse
       style="fill:#ffffff;fill-opacity:1;stroke:none;stroke-width:3.74212;stroke-linecap:round;stroke-linejoin:round"
       id="path5281-0-1"
       cx="17.569622"
       cy="31.876043"
       rx="5"
       ry="2.5"
       transform="rotate(45)" />
    <path
       id="path984-4"
       style="fill:#202020;stroke-width:0.988108;stroke-linecap:round;stroke-linejoin:round"
       d="m 28.725324,-22.869602 a 25.000011,25.000011 0 0 0 -10.990363,-6.256873 25.000011,25.000011 0 0 0 -6.470636,24.1483233 25.000011,25.000011 0 0 0 24.148323,-6.4706363 25.000011,25.000011 0 0 0 -6.687324,-11.420814 z m -4.379774,-2.261142 a 2.5,2.5 0 0 1 3.65e-4,3.535319 2.5,2.5 0 0 1 -3.535684,0 2.5,2.5 0 0 1 3.66e-4,-3.535318 2.5,2.5 0 0 1 3.534953,-1e-6 z" />
    <path
       style="fill:#202020;fill-opacity:1;stroke:none;stroke-width:0.264583px;stroke-linecap:butt;stroke-linejoin:miter;stroke-opacity:1"
       d="m 0,80 v 1 l 25,-0.5 z"
       id="path9607"
       sodipodi:nodetypes="cccc" />
    <path
       style="fill:#202020;fill-opacity:1;stroke:none;stroke-width:0.264583px;stroke-linecap:butt;stroke-linejoin:miter;stroke-opacity:1"
       d="m 0,85 v 1 l 30,-0.5 z"
       id="path9607-9"
       sodipodi:nodetypes="cccc" />
    <path
       style="fill:#202020;fill-opacity:1;stroke:none;stroke-width:0.264583px;stroke-linecap:butt;stroke-linejoin:miter;stroke-opacity:1"
       d="m 0,75 v 1 l 30,-0.5 z"
       id="path9607-6"
       sodipodi:nodetypes="cccc" />
    <path
       style="fill:#202020;fill-opacity:1;stroke:none;stroke-width:0.264583px;stroke-linecap:butt;stroke-linejoin:miter;stroke-opacity:1"
       d="m 100,80 v 1 L 75,80.5 Z"
       id="path9607-3"
       sodipodi:nodetypes="cccc" />
    <path
       style="fill:#202020;fill-opacity:1;stroke:none;stroke-width:0.264583px;stroke-linecap:butt;stroke-linejoin:miter;stroke-opacity:1"
       d="m 100,85 v 1 L 70,85.5 Z"
       id="path9607-9-9"
       sodipodi:nodetypes="cccc" />
    <path
       style="fill:#202020;fill-opacity:1;stroke:none;stroke-width:0.264583px;stroke-linecap:butt;stroke-linejoin:miter;stroke-opacity:1"
       d="m 100,75 v 1 L 70,75.5 Z"
       id="path9607-6-0"
       sodipodi:nodetypes="cccc" />
    <path
       id="path984-8"
       style="fill:#202020;fill-opacity:1;stroke-width:0.790481;stroke-linecap:round;stroke-linejoin:round"
       d="M 24.610424,49.966431 A 19.999865,19.999865 0 0 0 15.857953,45.00014 19.999865,19.999865 0 0 0 10.68148,64.31866 19.999865,19.999865 0 0 0 30,59.142188 a 19.999865,19.999865 0 0 0 -5.054573,-8.840753 3.9999712,1.9999856 45 0 1 1.292364,4.117968 3.9999712,1.9999856 45 0 1 -4.24279,-1.414264 3.9999712,1.9999856 45 0 1 -1.414264,-4.24279 3.9999712,1.9999856 45 0 1 4.192511,1.366907 19.999865,19.999865 0 0 0 -0.162824,-0.162825 z" />
    <path
       id="path984-8-6"
       style="fill:#202020;fill-opacity:1;stroke-width:0.790481;stroke-linecap:round;stroke-linejoin:round"
       d="m 74.96611,50.389576 a 19.999864,19.999864 0 0 0 -4.966291,8.752471 19.999864,19.999864 0 0 0 19.31852,5.176472 A 19.999864,19.999864 0 0 0 84.141866,45 a 19.999864,19.999864 0 0 0 -8.840752,5.054573 1.9999856,3.9999711 45 0 1 4.117966,-1.292364 1.9999856,3.9999711 45 0 1 -1.414262,4.242788 1.9999856,3.9999711 45 0 1 -4.24279,1.414264 1.9999856,3.9999711 45 0 1 1.366907,-4.192509 19.999864,19.999864 0 0 0 -0.162825,0.162824 z" />
    <path
       id="path13419"
       style="fill:#402020;fill-opacity:1;stroke:none;stroke-width:4.40074;stroke-linecap:round;stroke-linejoin:round"
       d="m 50.000108,92.5 8.005349,-5.505131 c 1.29495,-1.297311 1.994796,-2.874302 1.99476,-4.494879 C 60.00021,78.357827 55.522993,74.999955 50.000108,75 44.477223,74.999955 40.000007,78.357827 40,82.49999 c -3.6e-5,1.620577 0.69981,3.197568 1.99476,4.494879 z"
       sodipodi:nodetypes="ccccccc" />
  </g>
</svg>
